<?xml version="1.0" encoding="utf-8"?>
<!-- License: Logo. Made by Agence DnD: https://dribbble.com/agencednd -->
<svg width="800px" height="800px" viewBox="0 0 24 24" fill="none" xmlns="http://www.w3.org/2000/svg">
<path d="M16.1378 16.8968C15.9629 17.053 15.7098 17.0643 15.5126 16.96C14.6344 16.2307 14.478 15.892 13.9943 15.1961C12.5429 16.6772 11.5158 17.12 9.63281 17.12C7.40741 17.12 5.67321 15.7468 5.67321 12.9967C5.67321 10.8495 6.83808 9.38697 8.49399 8.67252C9.9305 8.03981 11.9363 7.92819 13.4696 7.75334V7.41094C13.4696 6.78199 13.5179 6.03773 13.1495 5.49444C12.8257 5.00692 12.208 4.80595 11.6646 4.80595C10.6562 4.80595 9.75558 5.3232 9.53602 6.39496C9.4913 6.63318 9.31646 6.86765 9.07831 6.87879L6.5105 6.60346C6.29471 6.55498 6.05656 6.38013 6.1161 6.04887C6.70778 2.93785 9.51735 2 12.033 2C13.3206 2 15.0026 2.3424 16.0186 3.31744C17.3063 4.5194 17.1834 6.12331 17.1834 7.86865V11.992C17.1834 13.2312 17.697 13.7745 18.1807 14.4444C18.3519 14.6825 18.3892 14.9692 18.1733 15.1477C17.6337 15.5979 16.6735 16.4353 16.1452 16.9042L16.1377 16.8968M19.0201 18.4639C10.7652 22.3925 5.64215 19.1056 2.36272 17.1091C2.15979 16.9833 1.81488 17.1385 2.11413 17.4823C3.20668 18.807 6.78717 22 11.4608 22C16.1376 22 18.9198 19.4481 19.2679 19.003C19.6136 18.5616 19.3694 18.3181 19.02 18.4639H19.0201ZM21.3384 17.1836C21.1167 16.8949 19.9905 16.8411 19.2817 16.9282C18.5718 17.0127 17.5062 17.4466 17.5988 17.7071C17.6464 17.8047 17.7434 17.7609 18.2311 17.7171C18.7201 17.6683 20.09 17.4954 20.3755 17.8685C20.6623 18.2443 19.9385 20.0342 19.8064 20.3228C19.6787 20.6115 19.8552 20.6859 20.095 20.4937C20.3316 20.3015 20.7599 19.8038 21.0473 19.0994C21.3328 18.3913 21.5068 17.4034 21.3383 17.1836H21.3384ZM13.4696 10.4476C13.4696 11.4784 13.4956 12.338 12.9746 13.2535C12.5541 13.9978 11.8879 14.4555 11.1437 14.4555C10.1277 14.4555 9.53602 13.6814 9.53602 12.539C9.53602 10.2838 11.5567 9.87449 13.4696 9.87449V10.4476Z" stroke="#ffffff" stroke-linejoin="round"/>
</svg>